<?xml version="1.0" encoding="UTF-8" standalone="no"?>
<svg
   version="1.1"
   x="0px"
   y="0px"
   viewBox="0 0 659.74426 828.80097"
   xml:space="preserve"
   id="svg3"
   sodipodi:docname="saw_blade.svg"
   width="659.74426"
   height="828.80096"
   inkscape:version="1.4.2 (ebf0e940d0, 2025-05-08)"
   inkscape:export-batch-path="/home/ivan/projects/TwentyOne/app/static/assets"
   inkscape:export-batch-name=""
   xmlns:inkscape="http://www.inkscape.org/namespaces/inkscape"
   xmlns:sodipodi="http://sodipodi.sourceforge.net/DTD/sodipodi-0.dtd"
   xmlns="http://www.w3.org/2000/svg"
   xmlns:svg="http://www.w3.org/2000/svg"><defs
     id="defs3" /><sodipodi:namedview
     id="namedview3"
     pagecolor="#505050"
     bordercolor="#ffffff"
     borderopacity="1"
     inkscape:showpageshadow="0"
     inkscape:pageopacity="0"
     inkscape:pagecheckerboard="1"
     inkscape:deskcolor="#505050"
     inkscape:zoom="0.38645008"
     inkscape:cx="825.46237"
     inkscape:cy="252.29649"
     inkscape:window-width="1906"
     inkscape:window-height="1024"
     inkscape:window-x="0"
     inkscape:window-y="0"
     inkscape:window-maximized="1"
     inkscape:current-layer="g2"><inkscape:page
       x="0"
       y="0"
       width="659.74426"
       height="828.80096"
       id="page1"
       margin="0"
       bleed="0" /></sodipodi:namedview><g
     id="g2"
     transform="translate(-170.14912,-133.2579)"
     style="display:inline">
        <animateTransform
   attributeName="transform" />&quot;XML&quot; type=&quot;rotate&quot; from=&quot;0 500 500&quot; to=&quot;360 500 500&quot; dur=&quot;2s&quot; repeatCount=&quot;indefinite&quot; /&gt;
        <path
   d="m 938.67751,524.16432 c -8.84334,-15.05908 -66.70282,-76.7572 -27.8667,-88.722 13.02295,-4.00916 24.42269,10.80776 38.01078,12.6733 -2.07192,-23.26574 -13.67787,-37.01531 -17.74087,-58.28989 -9.81213,-17.39104 -74.56876,-39.61633 -63.36646,-68.43394 6.33234,-16.27889 28.3154,-6.07205 48.16395,-12.67329 -12.27876,-15.6152 -25.02377,-30.746 -35.49066,-48.16387 -23.8577,-12.06343 -84.11191,-17.66905 -81.09821,-45.61667 2.16152,-20.1356 27.68749,-13.86619 43.08745,-25.35553 -18.63777,-10.08121 -34.52187,-22.9339 -50.69318,-35.48163 -35.20345,-2.80733 -84.88311,8.85246 -91.24229,-22.80835 4.7088,-17.25644 25.24804,-18.68254 32.94338,-32.943365 -20.24308,1.255683 -29.5709,-15.354982 -58.28996,-15.211542 -33.32006,0.17043 -62.00317,24.252427 -81.10728,17.749807 -29.81318,-10.170907 1.13915,-40.827117 10.14407,-53.231357 h -58.29892 c -21.40022,3.06739 -52.91749,48.764804 -78.56007,43.08736 -21.89345,-4.84328 -11.85712,-28.3781 -5.0765,-50.68413 2.67283,-0.14344 1.99117,-3.24683 -2.53825,-2.53827 -16.71832,6.93309 -34.13619,13.17549 -53.2224,17.74077 -9.56104,11.9378 -17.95601,25.84889 -27.88485,38.0199 -9.4354,11.587967 -19.85749,29.194247 -43.08735,25.346557 -11.24719,-6.49365 -6.85235,-28.629267 -7.60572,-45.616657 -14.06356,4.54732 -34.22598,24.889107 -50.69319,35.481657 -12.72702,23.83972 -15.80344,82.46152 -45.61667,78.5779 -19.80364,-2.59207 -13.07686,-26.09996 -25.35551,-40.55812 -2.93288,17.90227 -24.47653,20.00099 -32.94338,50.69317 -9.35465,33.89411 9.59696,87.41251 -22.81729,88.71297 -18.61075,0.74419 -20.06377,-22.48543 -32.94336,-32.95231 -3.166,22.46746 -17.543422,37.65209 -17.740772,58.2989 -0.259877,26.23447 22.557212,51.16847 17.740772,83.63647 -8.96907,6.63711 -8.63721,9.7135 -17.740772,10.13503 -13.695752,0.65475 -31.230309,-27.53501 -35.481609,-17.74076 3.08532,21.68715 -4.26029,34.56675 0,53.23142 5.51601,24.14467 46.244481,52.77396 43.087361,76.03074 -3.45305,25.40033 -31.938831,16.20709 -53.231401,5.06748 4.92408,20.42255 13.87517,36.80901 17.74983,58.28996 10.85257,16.49412 71.223301,38.58484 65.904641,65.89568 -3.36337,17.24751 -23.10432,15.59723 -48.163866,12.68228 12.278676,13.91997 16.404446,36.99741 35.481626,50.68413 24.65598,17.68703 61.35734,14.00972 73.51046,30.40516 21.06825,28.46779 -17.79469,31.9837 -35.4996,40.567 18.98748,6.80754 31.26615,30.43204 53.24035,35.46382 33.25725,7.65957 87.15237,-11.38185 86.16579,22.81719 -0.57375,19.96515 -24.13572,16.40436 -32.94337,32.96127 21.40913,3.9285 40.09169,10.59261 58.29889,17.74086 26.99688,-4.97779 89.71754,-40.72849 93.78053,-2.52923 2.00906,18.90675 -26.38701,25.0506 -17.74076,38.01077 11.3907,-3.50679 33.23032,-1.87448 58.2989,-2.52923 26.9341,-13.63297 39.80466,-41.31151 81.10726,-40.55805 15.19357,13.14866 1.79381,37.42791 -5.06757,50.70212 22.5931,-9.27399 42.10077,-7.16631 58.28998,-17.7498 26.33319,-17.18466 29.1584,-63.74312 70.97232,-63.34841 0.55604,1.98214 2.11646,2.94182 5.05845,2.52923 10.59244,10.54755 -0.24215,34.71018 5.07651,45.61666 15.60617,-12.26964 30.73697,-25.02376 48.15484,-35.48171 12.94228,-22.74548 17.48081,-87.1074 48.155,-81.10715 18.05474,3.52485 12.49392,27.27489 22.80825,43.09638 10.42217,-18.306 23.31062,-34.15432 35.48172,-50.68423 2.82521,-37.11403 -7.01393,-91.48451 22.81719,-91.26023 19.36423,0.15271 16.99633,24.36896 32.94338,32.96129 4.78946,-19.71397 10.93331,-38.08261 17.74085,-55.75166 -3.19309,-27.46325 -40.42355,-92.1482 -2.52923,-96.32772 17.09489,-1.88349 20.91573,19.02336 38.01078,22.80834 -5.15718,-16.84395 -1.417,-42.5493 -2.54729,-63.36647 z M 386.56896,497.6159 c -13.53434,0 -24.49457,-10.96918 -24.49457,-24.49449 0,-13.52539 10.96917,-24.50352 24.49457,-24.50352 13.52531,0 24.50342,10.96918 24.50342,24.50352 0,13.53426 -10.96916,24.49449 -24.50342,24.49449 z m 114.90263,24.49448 c -27.05965,0 -48.99799,-21.92931 -48.99799,-48.998 0,-27.0686 21.93834,-49.00694 48.99799,-49.00694 27.0686,0 49.00696,21.93834 49.00696,49.00694 0,27.06869 -21.93836,48.998 -49.00696,48.998 z M 616.38328,497.6159 c -13.53433,0 -24.50351,-10.96918 -24.50351,-24.49449 0,-13.52539 10.97813,-24.50352 24.50351,-24.50352 13.52532,0 24.49449,10.96918 24.49449,24.50352 0,13.53426 -10.97811,24.49449 -24.49449,24.49449 z"
   style="clip-rule:evenodd;display:none;fill:#333333;fill-rule:evenodd;stroke-width:8.96902"
   id="path1-7"
   inkscape:label="sawblade" /><path
   id="path20"
   style="display:inline;fill:#b3b3b3"
   d="m 499.08397,133.25811 c -177.60755,-0.19757 -321.23201,137.06705 -328.63281,314.79688 -7.55597,181.45565 127.93881,311.33856 262.60156,334.39062 0.18893,-1.7044 0.41703,-2.81255 0.41797,-3.92187 0.051,-61.75226 0.16657,-123.50531 -0.13672,-185.25586 -0.0147,-2.98688 -3.09383,-6.82233 -5.81054,-8.80274 -43.62243,-31.80157 -66.80951,-73.76245 -61.16016,-128.40234 5.43628,-52.57883 33.39379,-90.76337 82.08398,-111.00586 48.47897,-20.15466 95.89941,-14.01889 137.07422,18.5918 74.341,58.87835 69.17591,166.85327 -9.3789,221.02148 -4.19897,2.89539 -5.90925,5.66589 -5.89649,10.81055 0.14954,60.34179 0.0356,120.68499 0.0234,181.02734 -4.9e-4,2.16138 0.32464,4.32324 0.50195,6.53516 C 705.06454,757.68627 837.56627,633.09845 829.54686,449.8753 821.34337,262.44369 669.49913,133.44765 499.08397,133.25811 Z m 0.85157,222.09375 c -53.52981,0.87689 -99.53906,37.82178 -111.00586,89.38477 -11.9155,53.58041 17.98385,99.95398 44.55273,116.18359 0,-7.06512 0.0836,-13.729 -0.0156,-20.39062 -0.27039,-18.15265 2.25363,-36.56671 -5.91211,-53.94922 -1.60037,-3.40655 -1.60776,-7.70669 -1.77344,-11.61914 -1.32309,-31.24609 15.49884,-59.44482 42.66992,-71.79297 29.49072,-13.40237 62.89124,-8.23905 85.63281,13.23828 23.40229,22.10138 29.94599,52.90768 17.8711,83.5957 -0.90246,2.2938 -1.4812,4.87632 -1.49805,7.33008 -0.12433,18.02448 -0.0664,36.05011 -0.0664,54.75977 34.41602,-22.88953 55.64039,-72.75464 43.01368,-120.43946 -13.6969,-51.72671 -60.25412,-87.1724 -113.46875,-86.30078 z m 0.98437,63.61719 c -11.13648,0.25235 -22.35283,3.90071 -31.81055,10.9043 -17.31393,12.82129 -24.345,35.7101 -18.05078,56.60351 1.98987,6.60516 3.27546,13.70773 3.28321,20.58399 0.16745,148.79708 0.10743,297.59326 0.0918,446.39062 -2.7e-4,2.72638 0,5.45233 0,8.60742 h 94.93946 c 0,-3.44513 5.5e-4,-6.20226 0,-8.96093 -0.025,-149.36078 -0.0857,-298.72139 0.0488,-448.08204 0.006,-6.34488 1.15766,-12.88098 2.91993,-18.99804 6.11621,-21.22983 -1.7342,-44.34772 -20.0918,-57.57422 -9.13584,-6.58223 -20.1936,-9.72696 -31.33008,-9.47461 z"
   inkscape:label="axle" /></g></svg>
