<?xml version="1.0" encoding="UTF-8" standalone="no"?>
<svg
   version="1.1"
   x="0px"
   y="0px"
   viewBox="0 0 894.69995 894.81391"
   xml:space="preserve"
   id="svg3"
   sodipodi:docname="saw.svg"
   width="894.69995"
   height="894.8139"
   inkscape:version="1.4.2 (ebf0e940d0, 2025-05-08)"
   xmlns:inkscape="http://www.inkscape.org/namespaces/inkscape"
   xmlns:sodipodi="http://sodipodi.sourceforge.net/DTD/sodipodi-0.dtd"
   xmlns="http://www.w3.org/2000/svg"
   xmlns:svg="http://www.w3.org/2000/svg"><defs
     id="defs3" /><sodipodi:namedview
     id="namedview3"
     pagecolor="#505050"
     bordercolor="#ffffff"
     borderopacity="1"
     inkscape:showpageshadow="0"
     inkscape:pageopacity="0"
     inkscape:pagecheckerboard="1"
     inkscape:deskcolor="#505050"
     inkscape:zoom="0.38645008"
     inkscape:cx="100.9186"
     inkscape:cy="239.35821"
     inkscape:window-width="1078"
     inkscape:window-height="1024"
     inkscape:window-x="0"
     inkscape:window-y="0"
     inkscape:window-maximized="1"
     inkscape:current-layer="g2"><inkscape:page
       x="0"
       y="0"
       width="894.69995"
       height="894.8139"
       id="page2"
       margin="0"
       bleed="0" /></sodipodi:namedview><g
     id="g2"
     transform="translate(-54.121649,-37.415925)"
     style="display:inline">
        <animateTransform
   attributeName="transform" />&quot;XML&quot; type=&quot;rotate&quot; from=&quot;0 500 500&quot; to=&quot;360 500 500&quot; dur=&quot;2s&quot; repeatCount=&quot;indefinite&quot; /&gt;
        <path
   d="m 938.67751,524.16432 c -8.84334,-15.05908 -66.70282,-76.7572 -27.8667,-88.722 13.02295,-4.00916 24.42269,10.80776 38.01078,12.6733 -2.07192,-23.26574 -13.67787,-37.01531 -17.74087,-58.28989 -9.81213,-17.39104 -74.56876,-39.61633 -63.36646,-68.43394 6.33234,-16.27889 28.3154,-6.07205 48.16395,-12.67329 -12.27876,-15.6152 -25.02377,-30.746 -35.49066,-48.16387 -23.8577,-12.06343 -84.11191,-17.66905 -81.09821,-45.61667 2.16152,-20.1356 27.68749,-13.86619 43.08745,-25.35553 -18.63777,-10.08121 -34.52187,-22.9339 -50.69318,-35.48163 -35.20345,-2.80733 -84.88311,8.85246 -91.24229,-22.80835 4.7088,-17.25644 25.24804,-18.68254 32.94338,-32.943365 -20.24308,1.255683 -29.5709,-15.354982 -58.28996,-15.211542 -33.32006,0.17043 -62.00317,24.252427 -81.10728,17.749807 -29.81318,-10.170907 1.13915,-40.827117 10.14407,-53.231357 h -58.29892 c -21.40022,3.06739 -52.91749,48.764804 -78.56007,43.08736 -21.89345,-4.84328 -11.85712,-28.3781 -5.0765,-50.68413 2.67283,-0.14344 1.99117,-3.24683 -2.53825,-2.53827 -16.71832,6.93309 -34.13619,13.17549 -53.2224,17.74077 -9.56104,11.9378 -17.95601,25.84889 -27.88485,38.0199 -9.4354,11.587967 -19.85749,29.194247 -43.08735,25.346557 -11.24719,-6.49365 -6.85235,-28.629267 -7.60572,-45.616657 -14.06356,4.54732 -34.22598,24.889107 -50.69319,35.481657 -12.72702,23.83972 -15.80344,82.46152 -45.61667,78.5779 -19.80364,-2.59207 -13.07686,-26.09996 -25.35551,-40.55812 -2.93288,17.90227 -24.47653,20.00099 -32.94338,50.69317 -9.35465,33.89411 9.59696,87.41251 -22.81729,88.71297 -18.61075,0.74419 -20.06377,-22.48543 -32.94336,-32.95231 -3.166,22.46746 -17.543422,37.65209 -17.740772,58.2989 -0.259877,26.23447 22.557212,51.16847 17.740772,83.63647 -8.96907,6.63711 -8.63721,9.7135 -17.740772,10.13503 -13.695752,0.65475 -31.230309,-27.53501 -35.481609,-17.74076 3.08532,21.68715 -4.26029,34.56675 0,53.23142 5.51601,24.14467 46.244481,52.77396 43.087361,76.03074 -3.45305,25.40033 -31.938831,16.20709 -53.231401,5.06748 4.92408,20.42255 13.87517,36.80901 17.74983,58.28996 10.85257,16.49412 71.223301,38.58484 65.904641,65.89568 -3.36337,17.24751 -23.10432,15.59723 -48.163866,12.68228 12.278676,13.91997 16.404446,36.99741 35.481626,50.68413 24.65598,17.68703 61.35734,14.00972 73.51046,30.40516 21.06825,28.46779 -17.79469,31.9837 -35.4996,40.567 18.98748,6.80754 31.26615,30.43204 53.24035,35.46382 33.25725,7.65957 87.15237,-11.38185 86.16579,22.81719 -0.57375,19.96515 -24.13572,16.40436 -32.94337,32.96127 21.40913,3.9285 40.09169,10.59261 58.29889,17.74086 26.99688,-4.97779 89.71754,-40.72849 93.78053,-2.52923 2.00906,18.90675 -26.38701,25.0506 -17.74076,38.01077 11.3907,-3.50679 33.23032,-1.87448 58.2989,-2.52923 26.9341,-13.63297 39.80466,-41.31151 81.10726,-40.55805 15.19357,13.14866 1.79381,37.42791 -5.06757,50.70212 22.5931,-9.27399 42.10077,-7.16631 58.28998,-17.7498 26.33319,-17.18466 29.1584,-63.74312 70.97232,-63.34841 0.55604,1.98214 2.11646,2.94182 5.05845,2.52923 10.59244,10.54755 -0.24215,34.71018 5.07651,45.61666 15.60617,-12.26964 30.73697,-25.02376 48.15484,-35.48171 12.94228,-22.74548 17.48081,-87.1074 48.155,-81.10715 18.05474,3.52485 12.49392,27.27489 22.80825,43.09638 10.42217,-18.306 23.31062,-34.15432 35.48172,-50.68423 2.82521,-37.11403 -7.01393,-91.48451 22.81719,-91.26023 19.36423,0.15271 16.99633,24.36896 32.94338,32.96129 4.78946,-19.71397 10.93331,-38.08261 17.74085,-55.75166 -3.19309,-27.46325 -40.42355,-92.1482 -2.52923,-96.32772 17.09489,-1.88349 20.91573,19.02336 38.01078,22.80834 -5.15718,-16.84395 -1.417,-42.5493 -2.54729,-63.36647 z M 386.56896,497.6159 c -13.53434,0 -24.49457,-10.96918 -24.49457,-24.49449 0,-13.52539 10.96917,-24.50352 24.49457,-24.50352 13.52531,0 24.50342,10.96918 24.50342,24.50352 0,13.53426 -10.96916,24.49449 -24.50342,24.49449 z m 114.90263,24.49448 c -27.05965,0 -48.99799,-21.92931 -48.99799,-48.998 0,-27.0686 21.93834,-49.00694 48.99799,-49.00694 27.0686,0 49.00696,21.93834 49.00696,49.00694 0,27.06869 -21.93836,48.998 -49.00696,48.998 z M 616.38328,497.6159 c -13.53433,0 -24.50351,-10.96918 -24.50351,-24.49449 0,-13.52539 10.97813,-24.50352 24.50351,-24.50352 13.52532,0 24.49449,10.96918 24.49449,24.50352 0,13.53426 -10.97811,24.49449 -24.49449,24.49449 z"
   style="clip-rule:evenodd;display:inline;fill:#333333;fill-rule:evenodd;stroke-width:8.96902"
   id="path1-7"
   inkscape:label="sawblade" /></g></svg>
